<!DOCTYPE svg PUBLIC "-//W3C//DTD SVG 20010904//EN" "http://www.w3.org/TR/2001/REC-SVG-20010904/DTD/svg10.dtd">
<svg version="1.0" xmlns="http://www.w3.org/2000/svg" width="1600px" height="1600px" viewBox="0 0 16000 16000" preserveAspectRatio="xMidYMid meet">
<g id="layer101" fill="#000000" stroke="none">
 <path d="M4920 13990 l0 -110 -105 0 -105 0 0 -905 0 -905 105 0 105 0 0 -105 0 -105 550 0 550 0 0 230 0 230 -435 0 -435 0 0 105 0 105 435 0 435 0 0 110 0 110 110 0 110 0 0 565 0 565 -110 0 -110 0 0 110 0 110 -550 0 -550 0 0 -110z m870 -675 l0 -325 -320 0 -320 0 0 325 0 325 320 0 320 0 0 -325z"/>
 <path d="M6650 13990 l0 -110 -105 0 -105 0 0 -455 0 -455 105 0 105 0 0 -105 0 -105 -105 0 -105 0 0 -345 0 -345 105 0 105 0 0 -105 0 -105 550 0 550 0 0 105 0 105 110 0 110 0 0 345 0 345 -110 0 -110 0 0 105 0 105 110 0 110 0 0 455 0 455 -110 0 -110 0 0 110 0 110 -550 0 -550 0 0 -110z m870 -565 l0 -215 -315 0 -315 0 0 215 0 215 315 0 315 0 0 -215z m0 -890 l0 -215 -315 0 -315 0 0 215 0 215 315 0 315 0 0 -215z"/>
 <path d="M8390 13990 l0 -110 -105 0 -105 0 0 -905 0 -905 105 0 105 0 0 -105 0 -105 555 0 555 0 0 230 0 230 -435 0 -435 0 0 105 0 105 435 0 435 0 0 110 0 110 105 0 105 0 0 565 0 565 -105 0 -105 0 0 110 0 110 -555 0 -555 0 0 -110z m870 -675 l0 -325 -315 0 -315 0 0 325 0 325 315 0 315 0 0 -325z"/>
 <path d="M10130 13990 l0 -110 -105 0 -105 0 0 -905 0 -905 105 0 105 0 0 -105 0 -105 550 0 550 0 0 230 0 230 -435 0 -435 0 0 105 0 105 435 0 435 0 0 110 0 110 110 0 110 0 0 565 0 565 -110 0 -110 0 0 110 0 110 -550 0 -550 0 0 -110z m870 -675 l0 -325 -320 0 -320 0 0 325 0 325 320 0 320 0 0 -325z"/>
 <path d="M10674 11570 c-123 -18 -224 -100 -262 -211 l-21 -64 -1 115 c0 159 5 155 -202 155 -189 0 -196 -4 -205 -101 -5 -59 15 -225 42 -342 8 -35 15 -92 15 -127 0 -62 -1 -64 -30 -70 -39 -9 -50 0 -50 38 0 17 -7 68 -15 112 -15 74 -29 153 -69 364 -23 126 -23 126 -209 126 -137 0 -154 -2 -174 -20 -13 -11 -23 -26 -23 -35 0 -9 -6 -4 -13 10 -24 48 -39 50 -399 50 -185 0 -348 -4 -361 -9 -63 -24 -69 -56 -37 -219 25 -129 25 -139 -3 -77 -30 70 -64 125 -77 125 -5 0 -10 6 -10 14 0 7 -11 21 -24 29 -13 9 -30 22 -38 31 -50 49 -129 77 -281 97 -108 15 -465 8 -476 -9 -6 -10 -14 -9 -40 4 -26 13 -58 15 -169 12 -185 -4 -182 -1 -182 -164 l0 -122 -87 1 -87 2 -7 30 c-4 17 -15 53 -24 80 -62 176 -54 169 -213 173 -140 3 -168 -5 -190 -51 -15 -32 -7 -83 34 -197 14 -41 30 -89 34 -107 7 -29 5 -31 -22 -37 -36 -7 -48 -1 -48 23 0 10 -7 36 -16 57 -9 22 -20 53 -25 69 -7 30 -12 44 -53 158 -31 85 -42 89 -281 85 -187 -3 -195 -4 -217 -26 l-23 -23 3 -287 4 -287 -51 -22 c-28 -12 -53 -18 -55 -15 -4 8 -22 106 -91 482 -8 47 -15 94 -15 106 0 11 -12 31 -27 45 -26 22 -37 24 -163 27 -202 5 -214 -4 -230 -169 -31 -342 -45 -472 -48 -454 -6 44 -71 405 -91 504 -16 79 -19 85 -51 103 -30 16 -52 19 -157 16 -112 -3 -124 -5 -145 -26 -20 -19 -23 -32 -21 -87 0 -35 10 -108 21 -162 11 -54 27 -143 36 -198 9 -55 26 -149 37 -210 11 -60 26 -146 34 -190 8 -44 24 -133 36 -198 16 -81 20 -120 12 -128 -11 -11 -16 11 -48 206 -10 55 -25 145 -35 200 -10 55 -26 143 -35 195 -27 157 -56 319 -76 420 -11 53 -19 105 -19 116 0 11 -10 28 -22 39 -21 18 -38 20 -175 20 -145 0 -153 -1 -175 -23 -20 -19 -23 -32 -21 -85 1 -34 11 -105 22 -157 11 -52 27 -140 36 -195 10 -55 25 -145 35 -200 10 -55 26 -143 35 -195 9 -52 24 -142 35 -200 10 -58 28 -154 39 -215 10 -60 24 -139 31 -174 l11 -64 -113 -115 c-108 -111 -146 -151 -178 -189 -8 -9 -30 -35 -50 -58 -19 -22 -46 -56 -60 -74 -14 -18 -31 -39 -38 -46 -6 -8 -12 -18 -12 -24 0 -6 -4 -11 -10 -11 -8 0 -47 -53 -95 -129 -5 -9 -13 -18 -17 -21 -9 -7 -58 -79 -58 -86 0 -3 -8 -13 -18 -24 -9 -10 -26 -36 -37 -57 -11 -21 -26 -44 -33 -52 -8 -8 -18 -24 -23 -35 -5 -12 -18 -34 -28 -51 -47 -78 -76 -131 -147 -275 -42 -85 -82 -168 -89 -185 -7 -16 -22 -50 -33 -75 -11 -25 -28 -63 -38 -85 -23 -52 -83 -221 -93 -261 -5 -18 -11 -37 -15 -43 -4 -6 -14 -35 -22 -63 -41 -146 -57 -207 -64 -243 -4 -22 -15 -69 -24 -105 -70 -285 -93 -486 -103 -895 -8 -358 13 -652 67 -915 11 -52 20 -104 20 -115 0 -11 9 -54 21 -95 11 -41 27 -102 35 -135 39 -157 153 -501 180 -542 8 -12 14 -28 14 -34 0 -7 10 -33 21 -58 12 -25 29 -62 37 -81 19 -45 26 -60 40 -85 5 -11 35 -69 65 -130 30 -60 78 -150 106 -198 28 -49 51 -93 51 -98 0 -5 4 -9 9 -9 5 0 16 -15 25 -32 22 -44 37 -68 58 -92 10 -11 18 -23 18 -27 0 -4 6 -14 12 -21 13 -14 19 -23 59 -86 12 -17 25 -32 30 -32 5 0 9 -5 9 -10 0 -6 4 -16 10 -23 5 -7 49 -61 96 -122 120 -153 197 -239 355 -395 185 -183 248 -240 380 -342 19 -14 57 -45 86 -67 29 -23 57 -41 63 -41 5 0 10 -4 10 -9 0 -5 15 -18 33 -29 17 -11 58 -39 90 -61 31 -23 61 -41 66 -41 5 0 15 -7 22 -16 7 -9 22 -20 34 -25 11 -5 32 -17 47 -27 23 -15 100 -60 198 -115 19 -11 58 -31 85 -45 58 -28 78 -38 103 -52 15 -8 95 -44 207 -94 94 -41 230 -94 300 -116 22 -7 63 -21 90 -31 50 -18 92 -30 240 -69 44 -12 103 -28 131 -36 28 -8 62 -14 75 -14 13 0 58 -9 99 -20 41 -11 89 -20 105 -20 17 0 47 -5 68 -11 l37 -10 0 -59 c0 -32 7 -92 15 -132 9 -40 20 -100 25 -133 9 -56 33 -148 58 -220 6 -16 27 -84 47 -150 21 -66 46 -141 56 -167 10 -26 19 -52 19 -58 0 -32 114 -240 132 -240 4 0 8 -4 8 -9 0 -14 45 -61 59 -61 6 0 11 -4 11 -8 0 -13 42 -30 93 -37 80 -12 139 9 206 73 32 32 61 64 65 72 3 8 15 29 26 45 33 49 90 183 107 250 3 11 13 43 23 70 10 28 28 84 40 125 12 41 28 90 36 108 8 18 14 40 14 48 0 9 7 37 15 63 20 63 53 240 61 329 5 65 8 72 28 72 36 -1 287 40 372 61 45 10 92 19 105 19 12 0 45 6 73 14 28 8 74 20 101 26 48 12 68 18 195 54 68 19 252 82 294 100 17 7 56 23 86 36 137 56 157 65 315 141 72 35 167 85 213 111 46 26 86 48 88 48 2 0 26 15 52 33 26 18 59 39 75 46 15 8 27 18 27 23 0 4 5 8 10 8 6 0 33 16 60 35 27 19 53 35 57 35 3 0 13 7 22 15 33 31 121 95 131 95 5 0 10 4 10 8 0 5 25 26 55 46 30 21 64 48 77 60 13 12 73 65 133 118 119 104 331 317 410 413 28 33 55 65 61 70 24 22 154 194 154 204 0 6 4 11 9 11 4 0 24 24 44 52 20 29 50 72 67 96 16 23 30 47 30 52 0 4 3 10 8 12 10 4 62 86 62 98 0 5 4 10 8 10 5 0 16 15 25 33 10 17 35 64 57 102 68 123 221 434 250 510 4 11 17 41 29 68 11 26 21 53 21 60 0 6 6 23 13 37 7 14 23 59 36 100 13 41 31 98 41 125 10 28 26 79 35 115 9 36 25 97 35 135 35 125 83 386 107 570 26 204 26 889 0 1085 -39 289 -114 642 -173 810 -9 25 -20 59 -24 75 -12 44 -30 94 -51 143 -11 23 -19 48 -19 54 0 6 -9 29 -19 52 -11 23 -29 66 -41 96 -34 87 -175 378 -226 465 -12 22 -29 51 -37 65 -26 49 -42 75 -74 122 -18 26 -33 50 -33 53 0 3 -16 28 -35 55 -19 27 -35 54 -35 59 0 5 -3 11 -7 13 -9 3 -84 102 -126 166 -16 23 -33 42 -38 42 -5 0 -9 7 -9 15 0 9 -7 18 -15 21 -8 4 -15 12 -15 20 0 8 -3 14 -7 14 -5 0 -30 28 -57 63 -27 34 -64 76 -83 94 -18 18 -33 36 -33 41 0 5 -10 16 -22 24 l-22 14 30 30 c90 88 121 223 91 396 -19 107 -29 113 -207 113 -130 0 -147 -2 -167 -20 -25 -21 -29 -57 -13 -135 11 -58 -6 -81 -44 -61 -34 18 -46 52 -46 125 0 57 4 70 35 116 19 29 69 89 110 135 41 45 75 87 75 94 0 6 4 11 9 11 6 0 16 11 23 24 61 113 71 139 84 215 12 72 11 98 -1 180 -15 101 -47 205 -71 232 -8 8 -14 21 -14 27 0 6 -29 40 -64 76 -120 120 -275 165 -472 136z m263 -92 c32 -12 74 -33 93 -47 44 -32 110 -102 110 -117 0 -6 6 -17 14 -23 21 -17 53 -126 64 -216 11 -85 -1 -190 -29 -250 -15 -32 -73 -121 -96 -145 -135 -144 -187 -214 -204 -273 -5 -17 -9 -52 -9 -77 -1 -40 -2 -43 -14 -27 -7 9 -18 17 -24 17 -6 0 -15 6 -19 14 -4 8 -49 44 -100 80 -90 65 -91 66 -83 98 4 18 19 53 34 78 14 25 29 52 33 60 4 8 19 29 34 45 14 17 49 55 75 86 142 163 148 175 148 294 0 80 -4 95 -27 131 -45 73 -151 94 -207 42 -21 -20 -22 -27 -17 -112 2 -50 8 -99 12 -108 7 -17 -2 -18 -109 -18 l-115 0 -11 42 c-24 86 -31 159 -21 211 23 126 81 191 201 231 8 2 58 5 112 5 76 1 108 -4 155 -21z m-6047 -20 c0 -18 9 -70 20 -116 11 -46 20 -97 20 -113 0 -16 6 -58 14 -92 8 -34 19 -91 25 -127 16 -92 29 -170 51 -285 10 -55 25 -140 34 -190 8 -49 20 -120 26 -157 l12 -68 -32 -30 c-18 -16 -36 -30 -41 -30 -4 0 -13 -9 -19 -20 -6 -11 -15 -20 -20 -20 -5 0 -28 -19 -50 -41 -26 -26 -45 -38 -51 -32 -5 5 -13 44 -19 86 -5 43 -16 104 -25 136 -8 32 -15 74 -15 93 0 18 -5 49 -10 68 -6 19 -14 62 -19 95 -4 33 -16 101 -25 150 -31 159 -54 287 -71 390 -9 55 -25 143 -36 195 -31 153 -40 140 106 140 l125 0 0 -32z m413 -70 c10 -57 27 -146 37 -198 10 -52 26 -140 35 -195 9 -55 25 -147 35 -205 34 -187 38 -215 34 -222 -3 -4 -31 -24 -62 -45 -31 -20 -59 -40 -62 -43 -3 -3 -19 -15 -35 -27 l-30 -21 -22 106 c-12 59 -29 152 -38 207 -15 90 -31 181 -65 360 -6 33 -15 89 -20 125 -4 36 -15 94 -24 130 -9 36 -16 80 -16 98 l0 32 108 0 108 0 17 -102z m554 67 c2 -16 9 -64 17 -105 8 -41 25 -131 36 -200 12 -69 28 -156 36 -194 8 -38 14 -74 14 -82 0 -7 -38 -32 -85 -55 -47 -23 -88 -46 -91 -50 -13 -21 -34 -8 -34 21 0 17 -4 30 -10 30 -5 0 -10 -16 -10 -36 0 -38 -14 -58 -52 -74 -24 -11 -36 -18 -106 -63 -24 -16 -45 -27 -48 -25 -2 3 1 51 6 109 5 57 17 187 25 289 28 331 36 415 41 443 l6 28 126 -3 127 -3 2 -30z m726 -2 c9 -21 26 -69 38 -108 11 -38 30 -92 40 -119 23 -58 24 -86 4 -86 -8 0 -29 -6 -47 -14 -18 -7 -53 -20 -78 -28 l-45 -15 -23 51 -23 51 6 -56 c5 -49 4 -57 -12 -62 -10 -3 -42 -15 -70 -26 -74 -29 -157 -61 -160 -61 -2 0 -3 115 -3 255 l0 255 178 0 179 0 16 -37z m468 -6 c30 -80 51 -142 58 -172 19 -77 15 -75 183 -75 l151 0 -6 45 c-6 38 -4 45 11 46 16 1 16 2 0 6 -16 4 -18 17 -18 99 l0 94 125 0 125 0 0 -102 c0 -57 7 -382 15 -723 8 -341 15 -650 15 -687 l0 -68 -184 0 -184 0 -27 88 c-15 48 -33 103 -41 122 -7 19 -32 94 -55 165 -22 72 -50 148 -60 171 -10 23 -19 49 -19 58 0 10 -5 27 -12 39 -6 12 -14 35 -19 52 -4 16 -15 53 -24 80 -10 28 -23 66 -30 85 -7 19 -20 58 -30 85 -9 28 -21 64 -26 80 -4 17 -25 80 -47 141 l-38 112 45 15 46 15 -52 -5 c-51 -6 -52 -5 -58 23 -4 16 -12 45 -19 64 -35 93 -49 137 -53 163 l-5 27 108 0 109 0 16 -43z m1274 20 c160 -47 253 -160 294 -359 24 -117 56 -294 76 -423 9 -55 25 -140 35 -190 10 -49 26 -142 36 -206 17 -113 17 -119 -1 -184 -19 -73 -56 -124 -109 -153 -63 -34 -127 -41 -357 -42 l-226 0 -17 98 c-10 53 -26 142 -36 197 -19 101 -49 273 -75 420 -7 44 -23 130 -34 190 -10 61 -27 155 -36 210 -16 91 -34 196 -64 360 -6 33 -14 71 -18 84 l-6 24 244 -6 c168 -4 259 -10 294 -20z m1083 -79 c12 -57 22 -109 22 -115 0 -10 -50 -13 -216 -13 l-216 0 6 -26 c7 -25 5 -26 -26 -20 l-33 5 32 -11 c38 -13 48 -37 64 -161 5 -43 14 -89 19 -103 6 -14 10 -42 10 -62 0 -86 -9 -82 184 -82 l171 0 14 -77 c7 -43 16 -95 18 -115 l5 -38 -166 0 -166 0 6 -62 c4 -35 15 -99 25 -143 10 -44 19 -92 19 -107 0 -15 5 -48 12 -73 l12 -45 213 0 c213 0 213 0 217 -22 2 -13 9 -54 16 -93 6 -38 14 -80 17 -93 l5 -22 -338 2 -339 3 -17 85 c-9 47 -24 130 -33 185 -9 55 -25 145 -35 200 -11 55 -26 143 -35 195 -9 52 -24 140 -34 195 -11 55 -26 145 -36 200 -9 55 -23 133 -31 173 -17 89 -17 99 -1 105 6 2 4 3 -5 2 -14 -3 -18 4 -18 28 0 18 -9 69 -20 115 -11 46 -20 85 -20 88 0 2 152 4 338 4 l337 0 23 -102z m395 20 c9 -46 26 -137 38 -203 11 -66 27 -153 35 -194 8 -40 14 -77 14 -82 0 -13 -17 -11 -53 5 -43 19 -145 61 -184 76 -28 11 -32 17 -38 63 -3 29 -14 97 -25 152 -10 55 -23 127 -29 160 -6 33 -14 70 -17 83 -6 22 -6 22 119 22 l124 0 16 -82z m514 -27 c1 -60 9 -136 17 -168 9 -33 23 -112 31 -176 21 -163 2 -246 -72 -300 -24 -19 -25 -19 -71 7 -26 14 -81 42 -122 62 l-75 37 35 12 c53 18 62 44 55 160 -3 55 -14 137 -25 182 -10 44 -22 129 -26 187 l-7 106 129 0 129 0 2 -109z m-778 -316 c-6 -5 -53 7 -169 45 -52 17 -120 39 -150 48 l-55 17 147 3 147 3 23 27 23 28 19 -83 c11 -46 17 -85 15 -88z m1322 104 c25 -27 29 -39 29 -90 0 -61 -28 -135 -56 -152 -8 -4 -14 -12 -14 -17 0 -5 -25 -37 -56 -69 -103 -110 -194 -247 -194 -292 0 -20 -1 -20 -31 -2 -17 10 -34 25 -37 33 -12 33 -86 130 -98 130 -18 0 -18 14 1 30 15 12 39 87 50 155 l6 40 143 -3 c139 -3 145 -2 171 21 31 26 31 33 20 165 -8 81 -7 82 15 82 12 0 35 -14 51 -31z m-3056 -194 c9 -55 24 -145 35 -200 10 -55 26 -145 35 -200 9 -55 25 -145 35 -200 10 -55 26 -143 35 -195 9 -52 26 -145 38 -207 29 -151 11 -143 314 -143 250 1 319 10 402 54 80 42 133 131 157 261 l8 40 8 -35 c4 -19 12 -64 18 -101 18 -123 32 -172 56 -196 l23 -23 357 0 c318 0 359 2 385 17 16 10 30 24 30 33 1 13 2 13 6 -1 2 -8 17 -23 32 -32 25 -15 61 -17 261 -17 238 0 320 10 395 48 72 36 129 115 140 195 7 48 21 61 31 30 15 -46 52 -102 98 -148 64 -63 91 -80 174 -112 56 -21 84 -25 177 -25 61 0 130 5 154 12 43 11 44 11 76 -22 17 -18 59 -67 92 -110 33 -42 66 -82 72 -90 29 -35 91 -118 117 -157 16 -24 36 -54 44 -66 75 -111 220 -353 220 -368 0 -3 -15 -8 -32 -12 -18 -4 -62 -15 -98 -25 -36 -10 -94 -26 -130 -35 -36 -9 -96 -25 -135 -35 -38 -11 -104 -27 -145 -36 -41 -9 -106 -25 -145 -34 -78 -20 -199 -46 -260 -56 -22 -3 -62 -12 -90 -19 -27 -8 -77 -16 -110 -20 -33 -3 -82 -12 -110 -20 -27 -7 -93 -20 -145 -29 -52 -8 -151 -24 -220 -35 -488 -79 -1275 -153 -1752 -165 l-207 -6 30 52 c17 28 42 81 57 117 24 59 27 79 27 191 0 121 -1 127 -32 190 -18 36 -48 92 -68 125 -84 144 -118 247 -120 368 -2 48 -5 90 -8 94 -13 12 -69 -21 -101 -59 l-34 -39 -1 92 c0 85 -3 97 -35 163 -39 78 -69 116 -91 116 -19 0 -19 -10 1 -60 16 -41 16 -165 -2 -423 -4 -59 -2 -104 6 -133 9 -31 10 -48 2 -56 -10 -10 -36 61 -44 121 -2 13 -11 29 -20 34 -13 9 -21 6 -37 -14 -41 -49 -91 -170 -116 -281 -15 -71 -15 -85 -1 -184 9 -59 15 -109 13 -111 -7 -7 -37 113 -37 148 0 74 -58 232 -89 244 -25 10 -33 -10 -22 -51 6 -22 11 -65 11 -97 0 -70 -20 -92 -83 -92 -50 0 -55 -13 -37 -94 26 -117 72 -229 127 -311 12 -19 23 -38 23 -43 0 -4 -109 -5 -242 -2 -336 8 -904 52 -1258 96 -366 45 -388 49 -730 105 -232 38 -489 91 -504 105 -35 31 325 15 574 -27 100 -17 100 -17 100 -5 0 5 -19 14 -42 20 -24 5 -61 14 -83 20 -188 46 -384 72 -600 78 -147 4 -188 2 -225 -11 -50 -17 -63 -15 -366 70 -28 8 -58 14 -67 14 -37 0 -34 11 52 163 72 128 208 331 312 467 48 64 151 191 169 210 8 9 46 51 84 93 37 42 71 75 76 72 4 -2 10 -23 14 -45 4 -24 17 -52 31 -66 25 -25 27 -25 178 -22 166 3 179 7 193 62 3 15 -1 66 -10 114 -9 48 -23 121 -31 162 -17 87 -20 163 -6 140 6 -8 12 -37 16 -65 3 -27 15 -99 26 -160 51 -277 28 -255 268 -255 199 0 210 3 229 67 6 22 16 113 22 203 6 90 12 165 14 167 1 2 8 -30 15 -69 50 -297 57 -325 78 -346 23 -24 278 -31 308 -9 17 13 22 13 41 0 18 -11 54 -14 172 -11 195 4 187 -3 187 172 0 72 -3 244 -7 381 -8 259 -7 266 32 135 13 -41 29 -90 36 -108 8 -18 14 -39 14 -46 0 -7 8 -35 19 -62 10 -27 35 -103 55 -169 21 -66 46 -143 57 -170 10 -28 19 -57 19 -66 0 -9 9 -27 21 -40 20 -23 27 -24 163 -27 139 -3 144 -3 171 21 33 28 37 66 13 124 -9 21 -28 74 -41 118 -14 44 -30 94 -36 110 -5 17 -21 66 -35 110 -14 44 -31 96 -37 115 -7 19 -20 58 -29 85 -9 28 -23 66 -29 85 -7 19 -16 49 -21 65 -4 17 -15 50 -24 75 -25 69 -76 222 -86 255 -5 17 -17 58 -28 92 l-20 62 31 10 c17 6 31 10 32 9 5 -6 47 -125 55 -153 4 -16 15 -50 24 -75 27 -75 77 -223 85 -255 12 -40 40 -123 57 -163 8 -18 14 -39 14 -47 0 -8 9 -34 19 -57 11 -24 29 -74 40 -113 12 -38 28 -86 35 -105 8 -19 24 -66 35 -105 12 -38 28 -86 35 -105 8 -19 20 -54 27 -78 23 -79 33 -82 263 -82 219 0 237 4 257 58 9 23 -1 827 -14 1207 l-4 100 13 -60 c7 -33 20 -105 29 -160z m882 198 c-4 -3 -7 0 -7 7 0 7 3 10 7 7 3 -4 3 -10 0 -14z m533 -33 c11 0 34 -6 52 -14 42 -17 125 -46 163 -56 47 -13 99 -34 106 -43 3 -5 11 -41 18 -80 6 -40 20 -117 31 -172 10 -55 26 -145 35 -200 9 -55 25 -143 35 -195 10 -52 21 -120 25 -150 5 -47 4 -52 -7 -38 -11 16 -37 18 -213 20 l-200 3 -8 55 c-5 30 -17 94 -27 143 l-18 87 144 0 c131 0 146 2 164 20 26 26 25 75 -4 214 -19 90 -27 113 -46 125 -18 12 -61 17 -174 21 l-151 5 -3 30 c-1 17 -9 62 -17 100 -7 39 -16 91 -20 118 l-6 47 51 -20 c28 -11 59 -20 70 -20z m-520 5 c0 -3 -2 -5 -5 -5 -3 0 -5 2 -5 5 0 3 2 5 5 5 3 0 5 -2 5 -5z m-1990 -66 c0 -9 8 -38 19 -65 25 -68 39 -107 68 -199 13 -44 31 -96 39 -115 7 -19 23 -66 35 -105 19 -64 34 -107 68 -205 7 -19 16 -48 21 -65 8 -29 22 -71 60 -180 10 -27 31 -92 47 -143 l30 -93 -114 3 -115 3 -25 80 c-15 44 -39 118 -55 165 -16 47 -33 101 -37 120 -5 19 -17 58 -26 85 -10 28 -23 66 -30 85 -14 39 -64 195 -120 375 -20 66 -43 134 -50 150 -23 55 -28 95 -12 95 8 0 36 8 63 19 98 37 108 39 122 23 6 -9 12 -23 12 -33z m2000 26 c0 -3 -2 -5 -5 -5 -3 0 -5 2 -5 5 0 3 2 5 5 5 3 0 5 -2 5 -5z m-2235 -711 c8 -204 15 -396 15 -427 l0 -57 -125 0 -125 0 0 82 c0 95 -18 730 -24 866 l-4 93 26 10 c15 5 36 14 47 19 32 15 97 42 135 55 l35 13 2 -141 c2 -78 10 -309 18 -513z m2245 621 c0 -3 -2 -5 -5 -5 -3 0 -5 2 -5 5 0 3 2 5 5 5 3 0 5 -2 5 -5z m1123 -113 c38 -17 57 -32 57 -44 0 -14 8 -18 36 -18 34 0 75 -19 199 -90 22 -12 58 -33 80 -45 49 -28 139 -86 181 -117 34 -25 49 -61 85 -213 14 -59 22 -126 23 -195 1 -98 -1 -108 -27 -153 -30 -51 -82 -89 -137 -102 -19 -4 -143 -10 -276 -12 l-240 -4 -18 98 c-10 54 -26 143 -36 198 -19 101 -45 251 -76 425 -9 52 -24 138 -34 190 -10 52 -20 114 -23 136 l-5 42 77 -34 c42 -19 102 -47 134 -62z m-1113 63 c0 -3 -2 -5 -5 -5 -3 0 -5 2 -5 5 0 3 2 5 5 5 3 0 5 -2 5 -5z m10 -40 c0 -3 -2 -5 -5 -5 -3 0 -5 2 -5 5 0 3 2 5 5 5 3 0 5 -2 5 -5z m-2600 -112 c0 -54 2 -204 4 -333 3 -129 3 -221 0 -205 -2 17 -10 66 -18 110 -8 44 -24 134 -36 200 -12 66 -28 152 -36 190 -8 39 -14 76 -14 83 0 11 69 49 93 51 4 1 7 -43 7 -96z m2610 62 c0 -3 -2 -5 -5 -5 -3 0 -5 2 -5 5 0 3 2 5 5 5 3 0 5 -2 5 -5z m-2766 -147 c9 -51 25 -140 36 -198 10 -58 26 -148 35 -200 9 -52 25 -138 35 -190 10 -52 21 -119 25 -148 3 -29 8 -59 11 -67 5 -13 -11 -15 -104 -15 l-110 0 -11 31 c-6 18 -11 46 -11 63 0 17 -6 63 -14 101 -28 137 -49 250 -53 285 -2 19 -10 69 -18 110 -42 225 -42 227 19 256 17 8 49 25 71 38 67 40 70 38 89 -66z m2776 67 c0 -3 -2 -5 -5 -5 -3 0 -5 2 -5 5 0 3 2 5 5 5 3 0 5 -2 5 -5z m10 -50 c0 -3 -2 -5 -5 -5 -3 0 -5 2 -5 5 0 3 2 5 5 5 3 0 5 -2 5 -5z m10 -40 c0 -3 -2 -5 -5 -5 -3 0 -5 2 -5 5 0 3 2 5 5 5 3 0 5 -2 5 -5z m-3066 -97 c-2 -46 -11 -153 -19 -238 -8 -85 -19 -216 -25 -290 -6 -74 -13 -143 -16 -152 -5 -16 -21 -18 -159 -18 l-153 0 -11 68 c-7 37 -19 108 -27 157 -9 50 -22 124 -30 165 -12 62 -13 76 -1 85 7 5 40 30 72 55 33 25 72 53 86 62 l25 16 14 -74 c7 -41 16 -74 20 -74 4 0 10 42 13 92 5 73 10 95 24 105 10 8 26 20 36 28 9 8 19 15 22 15 4 0 73 44 90 58 9 7 22 14 42 21 1 1 0 -36 -3 -81z m3076 47 c0 -3 -2 -5 -5 -5 -3 0 -5 2 -5 5 0 3 2 5 5 5 3 0 5 -2 5 -5z m-2240 -10 c0 -3 -2 -5 -5 -5 -3 0 -5 2 -5 5 0 3 2 5 5 5 3 0 5 -2 5 -5z m2250 -70 c0 -3 -2 -5 -5 -5 -3 0 -5 2 -5 5 0 3 2 5 5 5 3 0 5 -2 5 -5z m10 -50 c0 -3 -2 -5 -5 -5 -3 0 -5 2 -5 5 0 3 2 5 5 5 3 0 5 -2 5 -5z m10 -40 c0 -3 -2 -5 -5 -5 -3 0 -5 2 -5 5 0 3 2 5 5 5 3 0 5 -2 5 -5z m1727 -17 c-3 -8 -6 -5 -6 6 -1 11 2 17 5 13 3 -3 4 -12 1 -19z m321 -242 c34 -32 62 -64 62 -70 0 -6 12 -17 28 -23 36 -16 238 -220 228 -230 -4 -4 -60 -8 -124 -8 -111 1 -121 2 -185 33 -85 40 -148 102 -193 193 -35 69 -64 191 -64 267 l0 42 93 -73 c50 -39 120 -99 155 -131z m-2038 169 c0 -3 -2 -5 -5 -5 -3 0 -5 2 -5 5 0 3 2 5 5 5 3 0 5 -2 5 -5z m10 -40 c0 -3 -2 -5 -5 -5 -3 0 -5 2 -5 5 0 3 2 5 5 5 3 0 5 -2 5 -5z m2516 -27 c4 -6 8 -66 8 -132 1 -116 0 -123 -28 -173 -16 -29 -40 -60 -53 -68 -24 -16 -26 -15 -114 75 -87 88 -90 92 -71 106 35 24 45 74 29 143 l-14 61 118 0 c79 0 120 -4 125 -12z m-2506 -23 c0 -3 -2 -5 -5 -5 -3 0 -5 2 -5 5 0 3 2 5 5 5 3 0 5 -2 5 -5z m7 -62 c-4 -3 -7 0 -7 7 0 7 3 10 7 7 3 -4 3 -10 0 -14z m-3717 -203 c5 -36 12 -80 16 -98 l7 -33 -124 3 -124 3 -14 64 -15 64 109 103 110 103 12 -72 c7 -40 17 -101 23 -137z m2550 -1285 c0 -3 -2 -5 -5 -5 -3 0 -5 2 -5 5 0 3 2 5 5 5 3 0 5 -2 5 -5z m2189 -350 c13 -89 14 -115 4 -115 -5 0 -66 -9 -138 -20 -71 -11 -148 -20 -170 -20 -78 -1 -82 -4 -78 -68 2 -31 13 -114 24 -185 10 -70 19 -146 19 -168 0 -39 1 -40 28 -35 32 6 164 23 240 30 36 4 52 1 53 -7 0 -7 6 -48 13 -92 8 -44 12 -83 10 -86 -3 -5 -114 -20 -256 -35 -57 -5 -58 -6 -58 -37 0 -18 9 -88 20 -157 11 -69 20 -149 20 -177 l0 -53 63 0 c35 0 89 5 120 10 31 6 94 14 141 18 l85 8 10 -61 c6 -34 11 -78 11 -97 0 -42 -2 -43 -172 -58 -57 -5 -143 -16 -193 -24 -49 -8 -126 -16 -170 -18 l-79 -3 -18 125 c-9 69 -24 190 -33 270 -9 80 -24 213 -35 295 -10 83 -26 213 -35 290 -9 77 -25 213 -37 302 -12 90 -19 165 -16 169 7 7 68 14 353 44 110 12 207 23 215 25 46 9 47 7 59 -70z m-3540 25 c98 -8 118 -13 147 -35 98 -75 119 -124 119 -280 0 -125 -5 -148 -58 -250 -19 -36 -156 -185 -171 -185 -3 0 -14 -7 -23 -15 -10 -9 -52 -41 -93 -73 -148 -113 -190 -178 -190 -297 0 -67 3 -79 24 -100 13 -13 40 -28 61 -34 39 -11 95 -5 95 10 0 5 6 9 14 9 17 0 44 66 53 127 l6 45 36 -6 c20 -3 62 -8 94 -12 38 -5 61 -12 64 -22 9 -23 -17 -142 -43 -192 -29 -60 -77 -107 -139 -136 -74 -35 -211 -34 -298 2 -34 14 -67 32 -73 40 -6 8 -15 14 -19 14 -10 0 -44 44 -69 89 -17 31 -20 55 -20 166 0 140 11 187 63 270 41 64 199 212 244 228 9 4 17 11 17 17 0 5 5 10 10 10 13 0 62 42 118 99 59 61 82 118 82 202 0 57 -4 72 -25 97 -27 33 -83 47 -140 36 -43 -8 -85 -65 -85 -115 0 -18 -3 -51 -6 -72 l-7 -38 -91 7 c-50 3 -96 7 -101 9 -7 2 -8 28 -3 76 9 90 28 163 51 189 9 11 17 24 17 28 0 14 80 82 114 97 18 8 48 12 71 10 22 -3 91 -9 154 -15z m663 -59 c8 -7 -9 -503 -18 -532 -4 -14 7 -18 68 -24 216 -19 302 -72 349 -214 28 -84 27 -281 -3 -446 -23 -128 -90 -207 -207 -245 -70 -22 -73 -22 -269 -10 -108 7 -201 16 -206 21 -5 4 1 154 13 346 54 846 62 982 61 1051 l0 72 103 -6 c56 -4 105 -10 109 -13z m1915 2 c135 -62 186 -159 197 -379 l7 -132 -96 -7 c-53 -4 -99 -5 -102 -2 -2 3 -9 52 -13 109 -18 200 -27 217 -117 225 -74 6 -106 -6 -126 -50 -21 -43 -21 -85 -2 -367 8 -124 19 -301 25 -395 5 -93 15 -187 21 -208 19 -68 101 -96 182 -62 49 20 60 60 55 190 l-3 103 59 6 c32 3 78 6 101 6 l42 0 7 -61 c23 -229 -29 -359 -171 -426 -49 -23 -74 -28 -158 -31 -91 -3 -105 -1 -157 23 -67 30 -110 70 -141 129 -44 83 -46 100 -83 701 -25 403 -15 467 86 564 59 57 72 61 205 70 55 4 110 8 121 9 12 1 39 -6 61 -15z m-1207 -35 c0 -13 10 -76 22 -140 l22 -118 146 0 147 0 11 73 c6 39 13 91 16 114 2 23 11 50 20 58 9 9 16 21 16 26 0 5 46 9 101 9 l102 0 -7 -32 c-4 -18 -11 -67 -16 -108 -6 -41 -17 -111 -25 -155 -13 -74 -33 -196 -70 -435 -9 -52 -24 -147 -34 -210 -11 -63 -27 -164 -36 -225 -18 -123 -43 -271 -51 -298 -5 -16 -20 -17 -167 -15 l-162 3 -18 105 c-10 58 -24 146 -32 195 -8 50 -23 144 -34 210 -11 66 -27 170 -36 230 -9 61 -25 160 -35 220 -10 61 -26 157 -35 215 -9 58 -23 143 -31 190 -8 47 -14 91 -14 98 0 9 27 12 100 12 97 0 100 -1 100 -22z m1497 -360 c-2 -13 -4 -5 -4 17 -1 22 1 32 4 23 2 -10 2 -28 0 -40z m30 -201 c-1 -4 -12 0 -25 8 -17 13 -20 20 -12 35 5 10 11 45 11 77 l1 58 14 -85 c7 -47 12 -88 11 -93z m400 116 c-4 -3 -10 -3 -14 0 -3 4 0 7 7 7 7 0 10 -3 7 -7z m-3507 -13 c-33 -23 -50 -30 -50 -22 0 5 10 14 23 20 28 14 47 15 27 2z m1320 -41 l46 -10 21 -112 c12 -62 29 -152 37 -202 9 -49 24 -135 34 -190 l17 -99 -26 -76 c-39 -115 -59 -151 -112 -202 -37 -37 -56 -48 -80 -48 l-31 0 35 38 c41 43 52 64 81 152 18 56 21 96 25 280 5 200 3 219 -16 270 -26 69 -26 70 4 70 14 0 25 5 25 10 0 6 -15 10 -34 10 -26 0 -44 10 -83 48 -57 53 -73 66 -93 75 -21 9 95 -2 150 -14z m-1560 -4 c0 -3 -2 -5 -5 -5 -3 0 -5 2 -5 5 0 3 2 5 5 5 3 0 5 -2 5 -5z m2470 -50 c0 -54 0 -55 -30 -55 -16 0 -30 -4 -30 -10 0 -5 13 -10 29 -10 27 0 29 -3 35 -52 11 -100 12 -98 -45 -98 -43 0 -50 2 -45 18 3 9 8 40 11 67 19 155 29 183 73 194 1 1 2 -24 2 -54z m-2493 38 c-4 -3 -10 -3 -14 0 -3 4 0 7 7 7 7 0 10 -3 7 -7z m4198 -19 c33 -9 92 -24 130 -34 39 -10 106 -28 150 -40 44 -11 98 -25 119 -31 l39 -11 -7 -146 c-7 -154 -33 -329 -59 -397 -53 -142 -126 -243 -294 -405 -480 -465 -788 -766 -979 -956 -203 -202 -226 -228 -262 -300 -74 -149 -152 -365 -152 -423 0 -12 -9 -68 -19 -124 -27 -142 -40 -233 -107 -737 -9 -63 -24 -169 -34 -235 -23 -150 -49 -330 -54 -370 -1 -16 -4 671 -5 1527 0 889 -5 1559 -10 1562 -5 3 -11 -149 -15 -352 -3 -196 -13 -611 -21 -922 -8 -311 -18 -689 -20 -840 -3 -151 -13 -545 -21 -875 -17 -636 -16 -630 -63 -618 -10 3 -24 16 -30 29 -8 18 -11 390 -12 1332 -1 719 -4 1413 -8 1542 -6 228 -6 220 -14 -245 -4 -264 -10 -667 -13 -895 -2 -228 -7 -439 -10 -469 l-6 -54 -135 6 c-75 4 -162 7 -195 7 l-58 0 0 315 0 315 203 1 c226 2 204 12 -50 25 l-153 7 0 299 0 298 200 0 c110 0 200 4 200 9 0 5 -90 12 -200 16 l-200 7 -1 537 -2 536 -18 -210 c-10 -115 -29 -357 -41 -537 l-23 -328 -46 0 c-25 0 -87 -3 -137 -6 l-92 -7 0 194 c0 184 11 482 26 707 7 102 7 103 40 128 34 26 154 74 185 74 10 0 21 5 25 11 5 8 -45 10 -187 5 -107 -4 -212 -9 -233 -13 l-39 -5 5 -1832 5 -1833 34 -51 c18 -29 45 -56 59 -62 l25 -10 -25 5 c-14 2 -32 5 -41 5 -8 0 -34 16 -57 36 l-42 36 0 1888 0 1889 658 3 c569 3 662 5 692 19 26 11 46 13 80 7 29 -6 78 -5 135 3 182 25 285 106 337 265 19 57 23 90 22 192 -1 122 -1 122 22 122 20 0 24 -5 24 -32 0 -18 6 -82 14 -143 8 -60 20 -149 26 -198 20 -159 31 -167 217 -143 70 9 180 24 243 32 63 9 155 19 203 24 135 11 140 20 123 210 -14 159 -26 167 -203 151 -65 -6 -141 -14 -169 -17 l-51 -6 -7 32 c-3 18 -6 44 -6 58 l0 25 98 -7 c135 -9 555 -27 557 -24 1 2 5 28 9 58 11 93 14 91 -234 106 -117 7 -218 18 -224 24 -7 7 -4 10 10 10 10 0 30 9 44 20 23 18 25 24 23 97 -1 43 -5 97 -8 121 -7 49 -15 48 110 16z m-4225 12 c0 -1 -41 -20 -91 -42 -100 -43 -93 -31 -69 -124 37 -142 44 -160 57 -160 8 0 11 -4 8 -10 -4 -6 -62 -10 -141 -10 l-134 0 0 -60 0 -60 38 0 c28 0 52 -9 82 -31 62 -45 200 -180 200 -195 0 -21 37 -87 68 -119 40 -43 72 -67 123 -93 35 -18 52 -36 85 -95 55 -99 80 -158 114 -272 5 -16 12 -40 15 -52 7 -22 4 -21 -57 11 -92 48 -193 104 -212 119 -80 59 -133 102 -139 113 -4 8 -15 14 -22 14 -8 0 -15 4 -15 8 0 5 -25 26 -55 48 -30 21 -55 42 -55 47 0 11 -20 8 -20 -3 0 -14 120 -134 329 -331 90 -85 191 -180 223 -211 33 -32 64 -58 69 -58 5 0 9 -4 9 -8 0 -5 30 -33 68 -62 83 -67 121 -100 141 -122 8 -10 19 -18 23 -18 4 0 18 -10 30 -22 13 -13 59 -54 102 -93 43 -38 110 -108 150 -155 39 -46 79 -92 88 -102 19 -19 63 -85 88 -133 43 -80 136 -401 185 -640 9 -44 25 -116 35 -160 61 -267 84 -497 83 -825 -1 -290 -13 -412 -27 -280 -4 36 -13 108 -21 160 -8 52 -23 158 -35 235 -11 77 -27 183 -36 235 -8 52 -14 109 -14 125 0 27 -11 107 -56 395 -33 213 -56 337 -71 380 -8 25 -19 59 -23 75 -21 77 -87 230 -131 304 -12 21 -187 197 -691 696 -86 85 -158 155 -160 155 -1 0 -121 116 -264 258 -269 264 -303 304 -367 437 -45 94 -67 205 -83 432 -6 83 -5 95 15 126 22 36 73 67 109 67 11 0 48 8 83 19 35 10 102 28 149 40 47 12 105 28 130 36 43 13 90 19 90 11z m3005 -76 c37 -17 65 -37 65 -45 0 -19 -39 -20 -46 -1 -3 7 -30 19 -60 26 -41 10 -54 18 -54 32 0 25 21 23 95 -12z m55 -82 c0 -47 -23 -195 -30 -202 -6 -6 -10 -35 -10 -65 0 -66 -39 -211 -57 -211 -16 0 -16 7 1 78 23 91 46 205 46 225 0 9 3 17 8 17 4 0 6 38 4 85 -3 80 -2 85 17 85 12 0 21 -6 21 -12z m-2240 -153 l0 -35 -207 0 -208 0 40 35 40 34 168 1 167 0 0 -35z m1714 12 c3 -13 8 -92 12 -177 5 -123 11 -174 32 -247 14 -51 29 -93 34 -93 4 0 8 -7 8 -15 0 -9 -9 -15 -21 -15 -14 0 -19 -5 -17 -17 2 -13 14 -19 40 -21 20 -2 42 -10 48 -18 11 -12 3 -14 -53 -14 -63 0 -66 1 -109 43 -50 48 -77 97 -113 200 l-25 71 20 106 c10 58 22 131 25 163 l6 57 54 0 c47 0 53 -3 59 -23z m2746 -1922 c0 -8 -4 -15 -9 -15 -13 0 -22 16 -14 24 11 11 23 6 23 -9z m-3303 -77 c-4 -40 -12 -175 -19 -300 l-12 -228 -55 -1 c-31 0 -89 -4 -130 -8 l-74 -7 6 200 c4 111 7 249 7 309 l0 107 141 0 142 0 -6 -72z m1333 42 c0 -5 -4 -10 -10 -10 -5 0 -10 5 -10 10 0 6 5 10 10 10 6 0 10 -4 10 -10z m-3372 -332 c19 -19 14 -46 -8 -53 -22 -7 -50 9 -50 29 0 15 20 36 35 36 6 0 16 -5 23 -12z m4049 -134 c8 -20 -8 -48 -30 -52 -22 -5 -42 35 -26 54 16 19 48 18 56 -2z m-5572 -45 c14 -43 -45 -66 -61 -24 -8 19 13 45 37 45 10 0 21 -10 24 -21z m3532 -241 c-4 -84 -10 -226 -13 -314 l-7 -162 -119 -7 c-65 -4 -120 -6 -121 -4 -1 2 -1 147 1 322 l3 317 131 0 131 0 -6 -152z m3601 -160 c19 -19 14 -46 -8 -53 -22 -7 -50 9 -50 29 0 15 20 36 35 36 6 0 16 -5 23 -12z m-4743 -108 c3 -5 -1 -10 -9 -10 -9 0 -16 5 -16 10 0 6 4 10 9 10 6 0 13 -4 16 -10z m-1535 -165 c0 -8 -7 -15 -15 -15 -8 0 -15 7 -15 15 0 8 7 15 15 15 8 0 15 -7 15 -15z m2662 -432 c2 -197 4 -359 3 -359 0 -1 -54 -5 -121 -9 l-121 -7 -7 47 c-3 26 -6 191 -6 366 l0 319 124 0 124 0 4 -357z m518 -10 l0 -366 -137 6 c-75 4 -162 7 -195 7 l-58 0 0 360 0 360 195 0 195 0 0 -367z m1450 52 c0 -8 -7 -15 -15 -15 -8 0 -15 7 -15 15 0 8 7 15 15 15 8 0 15 -7 15 -15z m-3936 -301 c20 -8 21 -38 2 -53 -11 -9 -20 -10 -35 -1 -24 12 -27 30 -9 48 14 14 20 14 42 6z m1980 -165 c3 -17 6 -61 6 -98 1 -136 45 -342 89 -410 l15 -24 -78 7 c-129 12 -218 71 -259 173 -15 38 -20 82 -24 216 l-6 167 125 0 126 0 6 -31z m506 -133 c0 -156 -1 -167 -26 -215 -32 -66 -86 -120 -146 -149 -40 -19 -60 -22 -135 -20 l-88 3 -3 250 c-1 138 0 260 3 273 5 22 6 22 200 22 l195 0 0 -164z m-1033 -138 c-3 -7 -5 -2 -5 12 0 14 2 19 5 13 2 -7 2 -19 0 -25z m10 -65 c-3 -10 -5 -4 -5 12 0 17 2 24 5 18 2 -7 2 -21 0 -30z m1485 -28 c0 -5 -5 -11 -11 -13 -6 -2 -11 4 -11 13 0 9 5 15 11 13 6 -2 11 -8 11 -13z m-1464 -110 c-1 -39 -1 -39 -8 10 -5 28 -8 64 -8 80 0 26 1 24 9 -10 4 -22 8 -58 7 -80z m2156 39 c24 -9 20 -51 -4 -59 -37 -12 -64 27 -38 53 14 14 20 14 42 6z m-2147 -186 c-2 -18 -4 -6 -4 27 0 33 2 48 4 33 2 -15 2 -42 0 -60z m-937 57 c0 -8 -4 -15 -10 -15 -5 0 -10 7 -10 15 0 8 5 15 10 15 6 0 10 -7 10 -15z m2086 -230 c-8 -71 -18 -168 -20 -215 -10 -156 -54 -433 -85 -535 -10 -33 -26 -89 -36 -125 -10 -36 -24 -83 -33 -105 -8 -22 -18 -56 -23 -75 -10 -45 -71 -217 -89 -250 -7 -13 -17 -38 -21 -55 -20 -78 -71 -179 -124 -243 -21 -25 -94 -72 -112 -72 -11 0 -34 75 -58 195 -24 119 -45 430 -45 688 l0 227 53 0 c65 0 173 22 216 44 32 17 53 33 120 93 43 37 96 124 106 172 l7 34 -33 -23 c-19 -13 -52 -38 -75 -56 -102 -82 -226 -134 -319 -134 -92 0 -258 63 -342 129 -67 53 -32 44 73 -18 25 -15 183 -71 201 -71 10 0 13 44 13 228 l0 228 -92 15 c-93 14 -93 14 257 19 343 5 351 6 394 29 25 13 52 30 60 39 15 14 16 14 20 -9 1 -13 -4 -82 -13 -154z m-1139 83 c-3 -8 -6 -5 -6 6 -1 11 2 17 5 13 3 -3 4 -12 1 -19z"/>
 <path d="M7590 11310 c0 -5 5 -10 11 -10 5 0 7 5 4 10 -3 6 -8 10 -11 10 -2 0 -4 -4 -4 -10z"/>
 <path d="M7500 11300 c0 -5 4 -10 9 -10 6 0 13 5 16 10 3 6 -1 10 -9 10 -9 0 -16 -4 -16 -10z"/>
 <path d="M7090 11240 c0 -5 5 -10 10 -10 6 0 10 5 10 10 0 6 -4 10 -10 10 -5 0 -10 -4 -10 -10z"/>
 <path d="M7050 11230 c0 -5 5 -10 10 -10 6 0 10 5 10 10 0 6 -4 10 -10 10 -5 0 -10 -4 -10 -10z"/>
 <path d="M7010 11220 c0 -5 4 -10 9 -10 6 0 13 5 16 10 3 6 -1 10 -9 10 -9 0 -16 -4 -16 -10z"/>
 <path d="M7245 11034 c-48 -17 -124 -55 -130 -65 -18 -29 -6 -232 16 -253 5 -6 9 -21 9 -35 0 -23 26 -115 55 -191 7 -19 24 -69 36 -110 13 -41 31 -90 41 -108 10 -18 18 -40 18 -50 0 -9 7 -30 15 -46 8 -15 15 -33 15 -40 1 -6 9 -29 20 -51 11 -22 19 -45 20 -51 0 -18 25 -64 34 -64 10 0 4 34 -39 215 -18 77 -36 174 -39 215 -4 41 -10 95 -13 120 -8 60 -9 261 -1 330 7 57 24 152 34 183 4 13 0 17 -23 16 -15 0 -46 -7 -68 -15z"/>
 <path d="M8233 11313 c4 -3 10 -3 14 0 3 4 0 7 -7 7 -7 0 -10 -3 -7 -7z"/>
 <path d="M8350 11310 c0 -7 3 -10 7 -7 3 4 3 10 0 14 -4 3 -7 0 -7 -7z"/>
 <path d="M8430 11300 c0 -5 5 -10 10 -10 6 0 10 5 10 10 0 6 -4 10 -10 10 -5 0 -10 -4 -10 -10z"/>
 <path d="M8503 11293 c4 -3 10 -3 14 0 3 4 0 7 -7 7 -7 0 -10 -3 -7 -7z"/>
 <path d="M8080 11254 c0 -3 6 -35 14 -72 8 -37 22 -114 31 -172 9 -58 25 -148 35 -200 10 -52 26 -140 35 -195 9 -55 25 -143 35 -195 11 -52 20 -106 20 -119 0 -13 7 -54 17 -92 l16 -69 102 0 c96 0 104 2 117 23 32 49 31 55 -22 342 -10 55 -26 145 -35 200 -9 55 -23 134 -32 175 -9 41 -18 91 -20 110 -17 158 -56 241 -123 260 -37 10 -190 14 -190 4z m188 -94 c12 -13 25 -56 36 -118 10 -53 26 -140 36 -192 10 -52 26 -140 35 -195 9 -55 24 -145 35 -200 29 -153 38 -219 32 -233 -3 -9 -20 -12 -50 -10 l-46 3 -12 65 c-7 36 -20 110 -29 165 -10 55 -25 145 -35 200 -11 55 -28 154 -40 220 -12 66 -28 153 -36 193 -22 113 -20 122 21 122 21 0 41 -7 53 -20z"/>
 <path d="M8803 11243 c4 -3 10 -3 14 0 3 4 0 7 -7 7 -7 0 -10 -3 -7 -7z"/>
 <path d="M8840 11240 c0 -5 5 -10 10 -10 6 0 10 5 10 10 0 6 -4 10 -10 10 -5 0 -10 -4 -10 -10z"/>
 <path d="M8880 11230 c0 -5 5 -10 10 -10 6 0 10 5 10 10 0 6 -4 10 -10 10 -5 0 -10 -4 -10 -10z"/>
 <path d="M8915 11220 c3 -5 10 -10 16 -10 5 0 9 5 9 10 0 6 -7 10 -16 10 -8 0 -12 -4 -9 -10z"/>
 <path d="M9260 9673 c-248 -45 -293 -61 -298 -104 -2 -15 5 -32 16 -42 55 -50 319 -87 615 -87 203 0 443 22 461 41 8 9 3 10 -19 6 -16 -3 -156 -1 -310 4 -276 9 -510 35 -560 61 -68 37 326 86 710 89 189 1 190 1 135 17 -43 12 -126 15 -390 17 -184 2 -346 1 -360 -2z"/>
 <path d="M7640 9542 c0 -69 -4 -86 -35 -149 -19 -39 -35 -84 -35 -99 0 -32 45 -114 63 -114 16 1 108 237 107 278 0 55 -57 162 -86 162 -11 0 -14 -17 -14 -78z"/>
 <path d="M4886 9549 c-65 -21 -85 -40 -86 -81 0 -36 42 -76 121 -115 63 -30 86 -39 219 -81 189 -59 426 -92 663 -92 197 0 261 12 130 25 -100 9 -400 63 -563 101 -258 60 -403 115 -374 143 18 19 202 28 389 20 211 -10 599 -50 642 -66 10 -4 14 -2 12 6 -6 18 -196 79 -344 110 -206 43 -294 51 -525 50 -194 0 -233 -3 -284 -20z"/>
 <path d="M11005 9194 c-211 -33 -345 -64 -520 -121 -156 -50 -235 -95 -235 -133 0 -81 482 -33 860 86 113 35 161 53 184 69 l20 15 -22 0 c-12 0 -54 -8 -94 -19 -138 -36 -481 -91 -564 -91 -65 0 -83 13 -41 29 135 53 243 84 452 130 50 11 109 23 133 26 23 4 42 11 42 16 0 13 -110 9 -215 -7z"/>
 <path d="M5520 8765 c0 -3 2 -5 5 -5 3 0 5 2 5 5 0 3 -2 5 -5 5 -3 0 -5 -2 -5 -5z"/>
 <path d="M9955 10559 c4 -35 15 -101 26 -147 10 -46 19 -95 19 -109 0 -14 7 -56 17 -94 l16 -69 87 0 c78 0 89 2 108 23 29 31 29 103 1 234 -38 182 -62 209 -194 219 l-86 7 6 -64z m155 -49 c13 -18 31 -76 46 -147 33 -159 33 -155 -18 -151 l-42 3 -12 65 c-7 36 -19 103 -28 150 -21 109 -21 110 8 110 16 0 32 -11 46 -30z"/>
 <path d="M6966 7548 c-3 -35 -8 -137 -12 -228 -3 -91 -7 -176 -7 -190 -2 -25 -1 -25 85 -28 83 -3 88 -2 117 25 30 27 31 33 41 143 26 303 12 339 -137 340 l-81 0 -6 -62z"/>
 <path d="M7775 8005 c-81 -17 -90 -22 -105 -53 -30 -66 -20 -303 25 -582 8 -47 17 -103 20 -125 3 -22 12 -71 20 -110 8 -38 20 -98 26 -133 21 -110 30 -55 19 109 -22 308 21 637 109 842 12 27 21 53 21 58 0 12 -61 9 -135 -6z"/>
 <path d="M7890 7135 c0 -3 2 -5 5 -5 3 0 5 2 5 5 0 3 -2 5 -5 5 -3 0 -5 -2 -5 -5z"/>
 </g>

</svg>